<?xml version="1.0" encoding="utf-8"?>
<!-- Generator: Adobe Illustrator 23.0.4, SVG Export Plug-In . SVG Version: 6.00 Build 0)  -->
<svg version="1.1" id="Layer_1" xmlns="http://www.w3.org/2000/svg" xmlns:xlink="http://www.w3.org/1999/xlink" x="0px" y="0px"
	 viewBox="0 0 553.7 135" style="enable-background:new 0 0 553.7 135;" xml:space="preserve">
<style type="text/css">
	.st0{fill:#303030;}
</style>
<g id="unbounce_logo_3_">
	<g id="Symbol_3_">
		<path class="st0" d="M60.8,14.3c-29.4,0-53.2,23.8-53.2,53.2s23.8,53.2,53.2,53.2S114,96.9,114,67.5S90.2,14.3,60.8,14.3z
			 M58.9,88.4L55,99.9c-0.1,0.4-0.3,0.7-0.5,1c-0.5,0.8-1.1,1.4-1.9,1.8c-0.7,0.4-1.5,0.6-2.3,0.6c-0.5,0-1.1-0.1-1.6-0.3
			c-2.2-0.8-3.6-3-3.3-5.2c-11-5.6-18.5-17.1-18.5-30.3c0-18.8,15.2-34.1,34.1-34.1c2.2,0,4.3,0.2,6.4,0.6c1.2-1.9,3.6-2.8,5.8-2.1
			c1.2,0.4,2.1,1.2,2.7,2.2c0.5,0.9,0.8,1.9,0.7,3c0,0.4-0.1,0.8-0.2,1.1l-3.9,11.5L58.9,88.4z M63.2,101.5l4.7-14.2
			c8.1-2.9,13.9-10.6,13.9-19.8c0-4.3-1.3-8.4-3.6-11.7l4.7-14.2c7.3,6.2,12,15.5,12,25.9C94.8,85.5,80.9,100.2,63.2,101.5z"/>
		<path class="st0" d="M39.8,67.5c0,7.4,3.9,13.9,9.7,17.7l13.2-38.6c-0.6-0.1-1.3-0.1-1.9-0.1C49.2,46.5,39.8,55.9,39.8,67.5z"/>
	</g>
</g>
</svg>
